<svg xmlns="http://www.w3.org/2000/svg" viewBox="0 0 100 100" fill="none" width="100" height="100">
  <defs>
    <linearGradient id="emblemBg" x1="0%" y1="0%" x2="100%" y2="100%">
      <stop offset="0%" stop-color="#132E22"/>
      <stop offset="100%" stop-color="#1E4333"/>
    </linearGradient>
    <linearGradient id="leafGradLight" x1="0%" y1="0%" x2="100%" y2="100%">
      <stop offset="0%" stop-color="#34D399"/>
      <stop offset="100%" stop-color="#10B981"/>
    </linearGradient>
    <linearGradient id="accentGradLight" x1="0%" y1="0%" x2="100%" y2="100%">
      <stop offset="0%" stop-color="#6EE7B7"/>
      <stop offset="100%" stop-color="#A7F3D0"/>
    </linearGradient>
    <filter id="glowShadow" x="-20%" y="-20%" width="140%" height="140%">
      <feDropShadow dx="0" dy="2" stdDeviation="4" flood-color="#10B981" flood-opacity="0.25"/>
    </filter>
  </defs>

  <rect x="5" y="5" width="90" height="90" rx="24" fill="url(#emblemBg)" stroke="#2D5A43" stroke-width="2" filter="url(#glowShadow)"/>
  
  <g transform="translate(22, 22)">
    <!-- Main Stem -->
    <path d="M28 6V50" stroke="#FFFFFF" stroke-width="3.5" stroke-linecap="round"/>
    
    <!-- Left Leaf Blades / NLP Lens Facets -->
    <path d="M28 14C20.5 14 14 19 11.5 26.5C15 25.5 21.5 24 28 25.5" stroke="url(#leafGradLight)" stroke-width="3.2" stroke-linecap="round" stroke-linejoin="round"/>
    <path d="M28 25.5C19 25.5 12 31 9 39C13.5 37.5 21.5 35 28 36.5" stroke="url(#leafGradLight)" stroke-width="3.2" stroke-linecap="round" stroke-linejoin="round"/>
    <path d="M28 36.5C21.5 36.5 15.5 41 13 47.5C18 46 23.5 44.5 28 45.5" stroke="url(#leafGradLight)" stroke-width="3.2" stroke-linecap="round" stroke-linejoin="round"/>
    
    <!-- Right Leaf Blades / Regulatory Alignment Facets -->
    <path d="M28 10C35.5 10 42 15 44.5 22.5C41 21.5 34.5 20 28 21.5" stroke="url(#accentGradLight)" stroke-width="3.2" stroke-linecap="round" stroke-linejoin="round"/>
    <path d="M28 21.5C37 21.5 44 27 47 35C42.5 33.5 34.5 31 28 32.5" stroke="url(#accentGradLight)" stroke-width="3.2" stroke-linecap="round" stroke-linejoin="round"/>
    <path d="M28 32.5C34.5 32.5 40.5 37 43 43.5C38 42 32.5 40.5 28 41.5" stroke="url(#accentGradLight)" stroke-width="3.2" stroke-linecap="round" stroke-linejoin="round"/>
  </g>
</svg>
